<mxfile host="app.diagrams.net" modified="2024-01-17T17:46:55.891Z" agent="Mozilla/5.0 (Windows NT 10.0; Win64; x64) AppleWebKit/537.36 (KHTML, like Gecko) Chrome/120.0.0.0 Safari/537.36" etag="lIMuc51oiGFCA_Kr20eg" version="22.1.18" type="device">
  <diagram name="Page-1" id="yJg1RCpf2dcKaLlAALri">
    <mxGraphModel dx="1808" dy="626" grid="1" gridSize="10" guides="1" tooltips="1" connect="1" arrows="1" fold="1" page="1" pageScale="1" pageWidth="827" pageHeight="1169" math="0" shadow="0">
      <root>
        <mxCell id="0" />
        <mxCell id="1" parent="0" />
        <mxCell id="uZR4xmGE3PbE84iwXI2c-5" value="Kierunek 1" style="shape=table;startSize=30;container=1;collapsible=0;childLayout=tableLayout;fixedRows=1;rowLines=0;fontStyle=0;strokeColor=default;fontSize=16;" vertex="1" parent="1">
          <mxGeometry x="80" y="40" width="180" height="180" as="geometry" />
        </mxCell>
        <mxCell id="uZR4xmGE3PbE84iwXI2c-160" style="shape=tableRow;horizontal=0;startSize=0;swimlaneHead=0;swimlaneBody=0;top=0;left=0;bottom=0;right=0;collapsible=0;dropTarget=0;fillColor=none;points=[[0,0.5],[1,0.5]];portConstraint=eastwest;strokeColor=inherit;fontSize=16;" vertex="1" parent="uZR4xmGE3PbE84iwXI2c-5">
          <mxGeometry y="30" width="180" height="30" as="geometry" />
        </mxCell>
        <mxCell id="uZR4xmGE3PbE84iwXI2c-161" value="&#xa;&lt;span style=&quot;color: rgb(0, 0, 0); font-family: Helvetica; font-size: 11px; font-style: normal; font-variant-ligatures: normal; font-variant-caps: normal; font-weight: 400; letter-spacing: normal; orphans: 2; text-align: center; text-indent: 0px; text-transform: none; widows: 2; word-spacing: 0px; -webkit-text-stroke-width: 0px; background-color: rgb(251, 251, 251); text-decoration-thickness: initial; text-decoration-style: initial; text-decoration-color: initial; float: none; display: inline !important;&quot;&gt;2 preferencja&lt;/span&gt;&#xa;&#xa;" style="shape=partialRectangle;html=1;whiteSpace=wrap;connectable=0;fillColor=none;top=0;left=0;bottom=0;right=0;overflow=hidden;pointerEvents=1;strokeColor=inherit;fontSize=16;" vertex="1" parent="uZR4xmGE3PbE84iwXI2c-160">
          <mxGeometry width="70" height="30" as="geometry">
            <mxRectangle width="70" height="30" as="alternateBounds" />
          </mxGeometry>
        </mxCell>
        <mxCell id="uZR4xmGE3PbE84iwXI2c-162" value="Kandydat A" style="shape=partialRectangle;html=1;whiteSpace=wrap;connectable=0;fillColor=none;top=0;left=0;bottom=0;right=0;align=left;spacingLeft=6;overflow=hidden;strokeColor=inherit;fontSize=16;" vertex="1" parent="uZR4xmGE3PbE84iwXI2c-160">
          <mxGeometry x="70" width="110" height="30" as="geometry">
            <mxRectangle width="110" height="30" as="alternateBounds" />
          </mxGeometry>
        </mxCell>
        <mxCell id="uZR4xmGE3PbE84iwXI2c-6" value="" style="shape=tableRow;horizontal=0;startSize=0;swimlaneHead=0;swimlaneBody=0;top=0;left=0;bottom=0;right=0;collapsible=0;dropTarget=0;fillColor=none;points=[[0,0.5],[1,0.5]];portConstraint=eastwest;strokeColor=inherit;fontSize=16;" vertex="1" parent="uZR4xmGE3PbE84iwXI2c-5">
          <mxGeometry y="60" width="180" height="30" as="geometry" />
        </mxCell>
        <mxCell id="uZR4xmGE3PbE84iwXI2c-7" value="&lt;font style=&quot;font-size: 11px;&quot;&gt;2 preferencja&lt;/font&gt;" style="shape=partialRectangle;html=1;whiteSpace=wrap;connectable=0;fillColor=none;top=0;left=0;bottom=0;right=0;overflow=hidden;pointerEvents=1;strokeColor=inherit;fontSize=16;" vertex="1" parent="uZR4xmGE3PbE84iwXI2c-6">
          <mxGeometry width="70" height="30" as="geometry">
            <mxRectangle width="70" height="30" as="alternateBounds" />
          </mxGeometry>
        </mxCell>
        <mxCell id="uZR4xmGE3PbE84iwXI2c-8" value="Kandydat D" style="shape=partialRectangle;html=1;whiteSpace=wrap;connectable=0;fillColor=none;top=0;left=0;bottom=0;right=0;align=left;spacingLeft=6;overflow=hidden;strokeColor=inherit;fontSize=16;" vertex="1" parent="uZR4xmGE3PbE84iwXI2c-6">
          <mxGeometry x="70" width="110" height="30" as="geometry">
            <mxRectangle width="110" height="30" as="alternateBounds" />
          </mxGeometry>
        </mxCell>
        <mxCell id="uZR4xmGE3PbE84iwXI2c-9" value="" style="shape=tableRow;horizontal=0;startSize=0;swimlaneHead=0;swimlaneBody=0;top=0;left=0;bottom=0;right=0;collapsible=0;dropTarget=0;fillColor=none;points=[[0,0.5],[1,0.5]];portConstraint=eastwest;strokeColor=inherit;fontSize=16;" vertex="1" parent="uZR4xmGE3PbE84iwXI2c-5">
          <mxGeometry y="90" width="180" height="30" as="geometry" />
        </mxCell>
        <mxCell id="uZR4xmGE3PbE84iwXI2c-10" value="" style="shape=partialRectangle;html=1;whiteSpace=wrap;connectable=0;fillColor=none;top=0;left=0;bottom=0;right=0;overflow=hidden;strokeColor=inherit;fontSize=16;" vertex="1" parent="uZR4xmGE3PbE84iwXI2c-9">
          <mxGeometry width="70" height="30" as="geometry">
            <mxRectangle width="70" height="30" as="alternateBounds" />
          </mxGeometry>
        </mxCell>
        <mxCell id="uZR4xmGE3PbE84iwXI2c-11" value="" style="shape=partialRectangle;html=1;whiteSpace=wrap;connectable=0;fillColor=none;top=0;left=0;bottom=0;right=0;align=left;spacingLeft=6;overflow=hidden;strokeColor=inherit;fontSize=16;" vertex="1" parent="uZR4xmGE3PbE84iwXI2c-9">
          <mxGeometry x="70" width="110" height="30" as="geometry">
            <mxRectangle width="110" height="30" as="alternateBounds" />
          </mxGeometry>
        </mxCell>
        <mxCell id="uZR4xmGE3PbE84iwXI2c-12" value="" style="shape=tableRow;horizontal=0;startSize=0;swimlaneHead=0;swimlaneBody=0;top=0;left=0;bottom=0;right=0;collapsible=0;dropTarget=0;fillColor=none;points=[[0,0.5],[1,0.5]];portConstraint=eastwest;strokeColor=inherit;fontSize=16;" vertex="1" parent="uZR4xmGE3PbE84iwXI2c-5">
          <mxGeometry y="120" width="180" height="30" as="geometry" />
        </mxCell>
        <mxCell id="uZR4xmGE3PbE84iwXI2c-13" value="&lt;font style=&quot;font-size: 11px;&quot;&gt;1 preferencja&lt;/font&gt;" style="shape=partialRectangle;html=1;whiteSpace=wrap;connectable=0;fillColor=none;top=0;left=0;bottom=0;right=0;overflow=hidden;strokeColor=inherit;fontSize=16;" vertex="1" parent="uZR4xmGE3PbE84iwXI2c-12">
          <mxGeometry width="70" height="30" as="geometry">
            <mxRectangle width="70" height="30" as="alternateBounds" />
          </mxGeometry>
        </mxCell>
        <mxCell id="uZR4xmGE3PbE84iwXI2c-14" value="Kandydat B" style="shape=partialRectangle;html=1;whiteSpace=wrap;connectable=0;fillColor=none;top=0;left=0;bottom=0;right=0;align=left;spacingLeft=6;overflow=hidden;strokeColor=inherit;fontSize=16;" vertex="1" parent="uZR4xmGE3PbE84iwXI2c-12">
          <mxGeometry x="70" width="110" height="30" as="geometry">
            <mxRectangle width="110" height="30" as="alternateBounds" />
          </mxGeometry>
        </mxCell>
        <mxCell id="uZR4xmGE3PbE84iwXI2c-135" style="shape=tableRow;horizontal=0;startSize=0;swimlaneHead=0;swimlaneBody=0;top=0;left=0;bottom=0;right=0;collapsible=0;dropTarget=0;fillColor=none;points=[[0,0.5],[1,0.5]];portConstraint=eastwest;strokeColor=inherit;fontSize=16;" vertex="1" parent="uZR4xmGE3PbE84iwXI2c-5">
          <mxGeometry y="150" width="180" height="30" as="geometry" />
        </mxCell>
        <mxCell id="uZR4xmGE3PbE84iwXI2c-136" style="shape=partialRectangle;html=1;whiteSpace=wrap;connectable=0;fillColor=none;top=0;left=0;bottom=0;right=0;overflow=hidden;strokeColor=inherit;fontSize=16;" vertex="1" parent="uZR4xmGE3PbE84iwXI2c-135">
          <mxGeometry width="70" height="30" as="geometry">
            <mxRectangle width="70" height="30" as="alternateBounds" />
          </mxGeometry>
        </mxCell>
        <mxCell id="uZR4xmGE3PbE84iwXI2c-137" value="Kandydat C" style="shape=partialRectangle;html=1;whiteSpace=wrap;connectable=0;fillColor=none;top=0;left=0;bottom=0;right=0;align=left;spacingLeft=6;overflow=hidden;strokeColor=inherit;fontSize=16;" vertex="1" parent="uZR4xmGE3PbE84iwXI2c-135">
          <mxGeometry x="70" width="110" height="30" as="geometry">
            <mxRectangle width="110" height="30" as="alternateBounds" />
          </mxGeometry>
        </mxCell>
        <mxCell id="uZR4xmGE3PbE84iwXI2c-16" value="" style="shape=image;html=1;verticalAlign=top;verticalLabelPosition=bottom;labelBackgroundColor=#ffffff;imageAspect=0;aspect=fixed;image=https://cdn0.iconfinder.com/data/icons/evericons-24px-vol-1/24/more-vertical-128.png" vertex="1" parent="1">
          <mxGeometry x="150" y="130" width="30" height="30" as="geometry" />
        </mxCell>
        <mxCell id="uZR4xmGE3PbE84iwXI2c-44" value="" style="endArrow=classic;html=1;rounded=0;entryX=0;entryY=0.5;entryDx=0;entryDy=0;" edge="1" parent="1" source="uZR4xmGE3PbE84iwXI2c-46" target="uZR4xmGE3PbE84iwXI2c-12">
          <mxGeometry width="50" height="50" relative="1" as="geometry">
            <mxPoint x="50" y="145" as="sourcePoint" />
            <mxPoint x="60" y="140" as="targetPoint" />
          </mxGeometry>
        </mxCell>
        <UserObject label="Ostatnia osoba przyjÄ™ta na kierunek" placeholders="1" name="Variable" id="uZR4xmGE3PbE84iwXI2c-46">
          <mxCell style="text;html=1;strokeColor=none;fillColor=none;align=center;verticalAlign=middle;whiteSpace=wrap;overflow=hidden;" vertex="1" parent="1">
            <mxGeometry x="-30" y="145" width="80" height="60" as="geometry" />
          </mxCell>
        </UserObject>
        <mxCell id="uZR4xmGE3PbE84iwXI2c-47" value="Kierunek 2" style="shape=table;startSize=30;container=1;collapsible=0;childLayout=tableLayout;fixedRows=1;rowLines=0;fontStyle=0;strokeColor=default;fontSize=16;" vertex="1" parent="1">
          <mxGeometry x="410" y="40" width="180" height="120" as="geometry" />
        </mxCell>
        <mxCell id="uZR4xmGE3PbE84iwXI2c-48" value="" style="shape=tableRow;horizontal=0;startSize=0;swimlaneHead=0;swimlaneBody=0;top=0;left=0;bottom=0;right=0;collapsible=0;dropTarget=0;fillColor=none;points=[[0,0.5],[1,0.5]];portConstraint=eastwest;strokeColor=inherit;fontSize=16;" vertex="1" parent="uZR4xmGE3PbE84iwXI2c-47">
          <mxGeometry y="30" width="180" height="30" as="geometry" />
        </mxCell>
        <mxCell id="uZR4xmGE3PbE84iwXI2c-49" value="&lt;font style=&quot;font-size: 11px;&quot;&gt;2 preferencja&lt;/font&gt;" style="shape=partialRectangle;html=1;whiteSpace=wrap;connectable=0;fillColor=none;top=0;left=0;bottom=0;right=0;overflow=hidden;pointerEvents=1;strokeColor=inherit;fontSize=16;" vertex="1" parent="uZR4xmGE3PbE84iwXI2c-48">
          <mxGeometry width="70" height="30" as="geometry">
            <mxRectangle width="70" height="30" as="alternateBounds" />
          </mxGeometry>
        </mxCell>
        <mxCell id="uZR4xmGE3PbE84iwXI2c-50" value="Kandydat B" style="shape=partialRectangle;html=1;whiteSpace=wrap;connectable=0;fillColor=none;top=0;left=0;bottom=0;right=0;align=left;spacingLeft=6;overflow=hidden;strokeColor=inherit;fontSize=16;" vertex="1" parent="uZR4xmGE3PbE84iwXI2c-48">
          <mxGeometry x="70" width="110" height="30" as="geometry">
            <mxRectangle width="110" height="30" as="alternateBounds" />
          </mxGeometry>
        </mxCell>
        <mxCell id="uZR4xmGE3PbE84iwXI2c-51" value="" style="shape=tableRow;horizontal=0;startSize=0;swimlaneHead=0;swimlaneBody=0;top=0;left=0;bottom=0;right=0;collapsible=0;dropTarget=0;fillColor=none;points=[[0,0.5],[1,0.5]];portConstraint=eastwest;strokeColor=inherit;fontSize=16;" vertex="1" parent="uZR4xmGE3PbE84iwXI2c-47">
          <mxGeometry y="60" width="180" height="30" as="geometry" />
        </mxCell>
        <mxCell id="uZR4xmGE3PbE84iwXI2c-52" value="" style="shape=partialRectangle;html=1;whiteSpace=wrap;connectable=0;fillColor=none;top=0;left=0;bottom=0;right=0;overflow=hidden;strokeColor=inherit;fontSize=16;" vertex="1" parent="uZR4xmGE3PbE84iwXI2c-51">
          <mxGeometry width="70" height="30" as="geometry">
            <mxRectangle width="70" height="30" as="alternateBounds" />
          </mxGeometry>
        </mxCell>
        <mxCell id="uZR4xmGE3PbE84iwXI2c-53" value="" style="shape=partialRectangle;html=1;whiteSpace=wrap;connectable=0;fillColor=none;top=0;left=0;bottom=0;right=0;align=left;spacingLeft=6;overflow=hidden;strokeColor=inherit;fontSize=16;" vertex="1" parent="uZR4xmGE3PbE84iwXI2c-51">
          <mxGeometry x="70" width="110" height="30" as="geometry">
            <mxRectangle width="110" height="30" as="alternateBounds" />
          </mxGeometry>
        </mxCell>
        <mxCell id="uZR4xmGE3PbE84iwXI2c-139" style="shape=tableRow;horizontal=0;startSize=0;swimlaneHead=0;swimlaneBody=0;top=0;left=0;bottom=0;right=0;collapsible=0;dropTarget=0;fillColor=none;points=[[0,0.5],[1,0.5]];portConstraint=eastwest;strokeColor=inherit;fontSize=16;" vertex="1" parent="uZR4xmGE3PbE84iwXI2c-47">
          <mxGeometry y="90" width="180" height="30" as="geometry" />
        </mxCell>
        <mxCell id="uZR4xmGE3PbE84iwXI2c-140" style="shape=partialRectangle;html=1;whiteSpace=wrap;connectable=0;fillColor=none;top=0;left=0;bottom=0;right=0;overflow=hidden;strokeColor=inherit;fontSize=16;" vertex="1" parent="uZR4xmGE3PbE84iwXI2c-139">
          <mxGeometry width="70" height="30" as="geometry">
            <mxRectangle width="70" height="30" as="alternateBounds" />
          </mxGeometry>
        </mxCell>
        <mxCell id="uZR4xmGE3PbE84iwXI2c-141" style="shape=partialRectangle;html=1;whiteSpace=wrap;connectable=0;fillColor=none;top=0;left=0;bottom=0;right=0;align=left;spacingLeft=6;overflow=hidden;strokeColor=inherit;fontSize=16;" vertex="1" parent="uZR4xmGE3PbE84iwXI2c-139">
          <mxGeometry x="70" width="110" height="30" as="geometry">
            <mxRectangle width="110" height="30" as="alternateBounds" />
          </mxGeometry>
        </mxCell>
        <mxCell id="uZR4xmGE3PbE84iwXI2c-57" value="" style="shape=image;html=1;verticalAlign=top;verticalLabelPosition=bottom;labelBackgroundColor=#ffffff;imageAspect=0;aspect=fixed;image=https://cdn0.iconfinder.com/data/icons/evericons-24px-vol-1/24/more-vertical-128.png" vertex="1" parent="1">
          <mxGeometry x="485" y="100" width="30" height="30" as="geometry" />
        </mxCell>
        <mxCell id="uZR4xmGE3PbE84iwXI2c-58" value="" style="endArrow=classic;html=1;rounded=0;entryX=0;entryY=0.5;entryDx=0;entryDy=0;" edge="1" parent="1">
          <mxGeometry width="50" height="50" relative="1" as="geometry">
            <mxPoint x="380" y="145" as="sourcePoint" />
            <mxPoint x="410" y="145" as="targetPoint" />
          </mxGeometry>
        </mxCell>
        <UserObject label="Ostatnia osoba przyjÄ™ta na kierunek" placeholders="1" name="Variable" id="uZR4xmGE3PbE84iwXI2c-59">
          <mxCell style="text;html=1;strokeColor=none;fillColor=none;align=center;verticalAlign=middle;whiteSpace=wrap;overflow=hidden;" vertex="1" parent="1">
            <mxGeometry x="300" y="120" width="80" height="60" as="geometry" />
          </mxCell>
        </UserObject>
        <mxCell id="uZR4xmGE3PbE84iwXI2c-60" value="" style="line;strokeWidth=2;html=1;strokeColor=#FF0000;" vertex="1" parent="1">
          <mxGeometry x="155" y="80" width="95" height="10" as="geometry" />
        </mxCell>
        <mxCell id="uZR4xmGE3PbE84iwXI2c-61" value="" style="line;strokeWidth=2;html=1;strokeColor=#FF0000;" vertex="1" parent="1">
          <mxGeometry x="485" y="80" width="95" height="10" as="geometry" />
        </mxCell>
        <mxCell id="uZR4xmGE3PbE84iwXI2c-105" value="Kierunek 1" style="shape=table;startSize=30;container=1;collapsible=0;childLayout=tableLayout;fixedRows=1;rowLines=0;fontStyle=0;strokeColor=default;fontSize=16;" vertex="1" parent="1">
          <mxGeometry x="80" y="460" width="180" height="120" as="geometry" />
        </mxCell>
        <mxCell id="uZR4xmGE3PbE84iwXI2c-106" value="" style="shape=tableRow;horizontal=0;startSize=0;swimlaneHead=0;swimlaneBody=0;top=0;left=0;bottom=0;right=0;collapsible=0;dropTarget=0;fillColor=none;points=[[0,0.5],[1,0.5]];portConstraint=eastwest;strokeColor=inherit;fontSize=16;" vertex="1" parent="uZR4xmGE3PbE84iwXI2c-105">
          <mxGeometry y="30" width="180" height="30" as="geometry" />
        </mxCell>
        <mxCell id="uZR4xmGE3PbE84iwXI2c-107" value="&lt;font style=&quot;font-size: 11px;&quot;&gt;2 preferencja&lt;/font&gt;" style="shape=partialRectangle;html=1;whiteSpace=wrap;connectable=0;fillColor=none;top=0;left=0;bottom=0;right=0;overflow=hidden;pointerEvents=1;strokeColor=inherit;fontSize=16;" vertex="1" parent="uZR4xmGE3PbE84iwXI2c-106">
          <mxGeometry width="70" height="30" as="geometry">
            <mxRectangle width="70" height="30" as="alternateBounds" />
          </mxGeometry>
        </mxCell>
        <mxCell id="uZR4xmGE3PbE84iwXI2c-108" value="Kandydat D" style="shape=partialRectangle;html=1;whiteSpace=wrap;connectable=0;fillColor=none;top=0;left=0;bottom=0;right=0;align=left;spacingLeft=6;overflow=hidden;strokeColor=inherit;fontSize=16;" vertex="1" parent="uZR4xmGE3PbE84iwXI2c-106">
          <mxGeometry x="70" width="110" height="30" as="geometry">
            <mxRectangle width="110" height="30" as="alternateBounds" />
          </mxGeometry>
        </mxCell>
        <mxCell id="uZR4xmGE3PbE84iwXI2c-109" value="" style="shape=tableRow;horizontal=0;startSize=0;swimlaneHead=0;swimlaneBody=0;top=0;left=0;bottom=0;right=0;collapsible=0;dropTarget=0;fillColor=none;points=[[0,0.5],[1,0.5]];portConstraint=eastwest;strokeColor=inherit;fontSize=16;" vertex="1" parent="uZR4xmGE3PbE84iwXI2c-105">
          <mxGeometry y="60" width="180" height="30" as="geometry" />
        </mxCell>
        <mxCell id="uZR4xmGE3PbE84iwXI2c-110" value="" style="shape=partialRectangle;html=1;whiteSpace=wrap;connectable=0;fillColor=none;top=0;left=0;bottom=0;right=0;overflow=hidden;strokeColor=inherit;fontSize=16;" vertex="1" parent="uZR4xmGE3PbE84iwXI2c-109">
          <mxGeometry width="70" height="30" as="geometry">
            <mxRectangle width="70" height="30" as="alternateBounds" />
          </mxGeometry>
        </mxCell>
        <mxCell id="uZR4xmGE3PbE84iwXI2c-111" value="" style="shape=partialRectangle;html=1;whiteSpace=wrap;connectable=0;fillColor=none;top=0;left=0;bottom=0;right=0;align=left;spacingLeft=6;overflow=hidden;strokeColor=inherit;fontSize=16;" vertex="1" parent="uZR4xmGE3PbE84iwXI2c-109">
          <mxGeometry x="70" width="110" height="30" as="geometry">
            <mxRectangle width="110" height="30" as="alternateBounds" />
          </mxGeometry>
        </mxCell>
        <mxCell id="uZR4xmGE3PbE84iwXI2c-112" value="" style="shape=tableRow;horizontal=0;startSize=0;swimlaneHead=0;swimlaneBody=0;top=0;left=0;bottom=0;right=0;collapsible=0;dropTarget=0;fillColor=none;points=[[0,0.5],[1,0.5]];portConstraint=eastwest;strokeColor=inherit;fontSize=16;" vertex="1" parent="uZR4xmGE3PbE84iwXI2c-105">
          <mxGeometry y="90" width="180" height="30" as="geometry" />
        </mxCell>
        <mxCell id="uZR4xmGE3PbE84iwXI2c-113" value="&lt;font style=&quot;font-size: 11px;&quot;&gt;1 preferencja&lt;/font&gt;" style="shape=partialRectangle;html=1;whiteSpace=wrap;connectable=0;fillColor=none;top=0;left=0;bottom=0;right=0;overflow=hidden;strokeColor=inherit;fontSize=16;" vertex="1" parent="uZR4xmGE3PbE84iwXI2c-112">
          <mxGeometry width="70" height="30" as="geometry">
            <mxRectangle width="70" height="30" as="alternateBounds" />
          </mxGeometry>
        </mxCell>
        <mxCell id="uZR4xmGE3PbE84iwXI2c-114" value="Kandydat C" style="shape=partialRectangle;html=1;whiteSpace=wrap;connectable=0;fillColor=none;top=0;left=0;bottom=0;right=0;align=left;spacingLeft=6;overflow=hidden;strokeColor=inherit;fontSize=16;" vertex="1" parent="uZR4xmGE3PbE84iwXI2c-112">
          <mxGeometry x="70" width="110" height="30" as="geometry">
            <mxRectangle width="110" height="30" as="alternateBounds" />
          </mxGeometry>
        </mxCell>
        <mxCell id="uZR4xmGE3PbE84iwXI2c-115" value="" style="shape=image;html=1;verticalAlign=top;verticalLabelPosition=bottom;labelBackgroundColor=#ffffff;imageAspect=0;aspect=fixed;image=https://cdn0.iconfinder.com/data/icons/evericons-24px-vol-1/24/more-vertical-128.png" vertex="1" parent="1">
          <mxGeometry x="155" y="520" width="30" height="30" as="geometry" />
        </mxCell>
        <mxCell id="uZR4xmGE3PbE84iwXI2c-116" value="" style="endArrow=classic;html=1;rounded=0;entryX=0;entryY=0.5;entryDx=0;entryDy=0;" edge="1" parent="1" target="uZR4xmGE3PbE84iwXI2c-112">
          <mxGeometry width="50" height="50" relative="1" as="geometry">
            <mxPoint x="50" y="565" as="sourcePoint" />
            <mxPoint x="60" y="560" as="targetPoint" />
          </mxGeometry>
        </mxCell>
        <UserObject label="Pierwsza osoba ponad limit miejsc" placeholders="1" name="Variable" id="uZR4xmGE3PbE84iwXI2c-117">
          <mxCell style="text;html=1;strokeColor=none;fillColor=none;align=center;verticalAlign=middle;whiteSpace=wrap;overflow=hidden;" vertex="1" parent="1">
            <mxGeometry x="-30" y="540" width="80" height="60" as="geometry" />
          </mxCell>
        </UserObject>
        <mxCell id="uZR4xmGE3PbE84iwXI2c-118" value="Kierunek 3" style="shape=table;startSize=30;container=1;collapsible=0;childLayout=tableLayout;fixedRows=1;rowLines=0;fontStyle=0;strokeColor=default;fontSize=16;" vertex="1" parent="1">
          <mxGeometry x="410" y="460" width="180" height="120" as="geometry" />
        </mxCell>
        <mxCell id="uZR4xmGE3PbE84iwXI2c-119" value="" style="shape=tableRow;horizontal=0;startSize=0;swimlaneHead=0;swimlaneBody=0;top=0;left=0;bottom=0;right=0;collapsible=0;dropTarget=0;fillColor=none;points=[[0,0.5],[1,0.5]];portConstraint=eastwest;strokeColor=inherit;fontSize=16;" vertex="1" parent="uZR4xmGE3PbE84iwXI2c-118">
          <mxGeometry y="30" width="180" height="30" as="geometry" />
        </mxCell>
        <mxCell id="uZR4xmGE3PbE84iwXI2c-120" value="&lt;font style=&quot;font-size: 11px;&quot;&gt;2 preferencja&lt;/font&gt;" style="shape=partialRectangle;html=1;whiteSpace=wrap;connectable=0;fillColor=none;top=0;left=0;bottom=0;right=0;overflow=hidden;pointerEvents=1;strokeColor=inherit;fontSize=16;" vertex="1" parent="uZR4xmGE3PbE84iwXI2c-119">
          <mxGeometry width="70" height="30" as="geometry">
            <mxRectangle width="70" height="30" as="alternateBounds" />
          </mxGeometry>
        </mxCell>
        <mxCell id="uZR4xmGE3PbE84iwXI2c-121" value="Kandydat C" style="shape=partialRectangle;html=1;whiteSpace=wrap;connectable=0;fillColor=none;top=0;left=0;bottom=0;right=0;align=left;spacingLeft=6;overflow=hidden;strokeColor=inherit;fontSize=16;" vertex="1" parent="uZR4xmGE3PbE84iwXI2c-119">
          <mxGeometry x="70" width="110" height="30" as="geometry">
            <mxRectangle width="110" height="30" as="alternateBounds" />
          </mxGeometry>
        </mxCell>
        <mxCell id="uZR4xmGE3PbE84iwXI2c-122" value="" style="shape=tableRow;horizontal=0;startSize=0;swimlaneHead=0;swimlaneBody=0;top=0;left=0;bottom=0;right=0;collapsible=0;dropTarget=0;fillColor=none;points=[[0,0.5],[1,0.5]];portConstraint=eastwest;strokeColor=inherit;fontSize=16;" vertex="1" parent="uZR4xmGE3PbE84iwXI2c-118">
          <mxGeometry y="60" width="180" height="30" as="geometry" />
        </mxCell>
        <mxCell id="uZR4xmGE3PbE84iwXI2c-123" value="" style="shape=partialRectangle;html=1;whiteSpace=wrap;connectable=0;fillColor=none;top=0;left=0;bottom=0;right=0;overflow=hidden;strokeColor=inherit;fontSize=16;" vertex="1" parent="uZR4xmGE3PbE84iwXI2c-122">
          <mxGeometry width="70" height="30" as="geometry">
            <mxRectangle width="70" height="30" as="alternateBounds" />
          </mxGeometry>
        </mxCell>
        <mxCell id="uZR4xmGE3PbE84iwXI2c-124" value="" style="shape=partialRectangle;html=1;whiteSpace=wrap;connectable=0;fillColor=none;top=0;left=0;bottom=0;right=0;align=left;spacingLeft=6;overflow=hidden;strokeColor=inherit;fontSize=16;" vertex="1" parent="uZR4xmGE3PbE84iwXI2c-122">
          <mxGeometry x="70" width="110" height="30" as="geometry">
            <mxRectangle width="110" height="30" as="alternateBounds" />
          </mxGeometry>
        </mxCell>
        <mxCell id="uZR4xmGE3PbE84iwXI2c-125" value="" style="shape=tableRow;horizontal=0;startSize=0;swimlaneHead=0;swimlaneBody=0;top=0;left=0;bottom=0;right=0;collapsible=0;dropTarget=0;fillColor=none;points=[[0,0.5],[1,0.5]];portConstraint=eastwest;strokeColor=inherit;fontSize=16;" vertex="1" parent="uZR4xmGE3PbE84iwXI2c-118">
          <mxGeometry y="90" width="180" height="30" as="geometry" />
        </mxCell>
        <mxCell id="uZR4xmGE3PbE84iwXI2c-126" value="&lt;font style=&quot;font-size: 11px;&quot;&gt;1 preferencja&lt;/font&gt;" style="shape=partialRectangle;html=1;whiteSpace=wrap;connectable=0;fillColor=none;top=0;left=0;bottom=0;right=0;overflow=hidden;strokeColor=inherit;fontSize=16;" vertex="1" parent="uZR4xmGE3PbE84iwXI2c-125">
          <mxGeometry width="70" height="30" as="geometry">
            <mxRectangle width="70" height="30" as="alternateBounds" />
          </mxGeometry>
        </mxCell>
        <mxCell id="uZR4xmGE3PbE84iwXI2c-127" value="Kandydat D" style="shape=partialRectangle;html=1;whiteSpace=wrap;connectable=0;fillColor=none;top=0;left=0;bottom=0;right=0;align=left;spacingLeft=6;overflow=hidden;strokeColor=inherit;fontSize=16;" vertex="1" parent="uZR4xmGE3PbE84iwXI2c-125">
          <mxGeometry x="70" width="110" height="30" as="geometry">
            <mxRectangle width="110" height="30" as="alternateBounds" />
          </mxGeometry>
        </mxCell>
        <mxCell id="uZR4xmGE3PbE84iwXI2c-128" value="" style="shape=image;html=1;verticalAlign=top;verticalLabelPosition=bottom;labelBackgroundColor=#ffffff;imageAspect=0;aspect=fixed;image=https://cdn0.iconfinder.com/data/icons/evericons-24px-vol-1/24/more-vertical-128.png" vertex="1" parent="1">
          <mxGeometry x="485" y="520" width="30" height="30" as="geometry" />
        </mxCell>
        <mxCell id="uZR4xmGE3PbE84iwXI2c-129" value="" style="endArrow=classic;html=1;rounded=0;entryX=0;entryY=0.5;entryDx=0;entryDy=0;" edge="1" parent="1" target="uZR4xmGE3PbE84iwXI2c-125">
          <mxGeometry width="50" height="50" relative="1" as="geometry">
            <mxPoint x="380" y="565" as="sourcePoint" />
            <mxPoint x="390" y="560" as="targetPoint" />
          </mxGeometry>
        </mxCell>
        <UserObject label="Pierwsza osoba ponad limit miejsc" placeholders="1" name="Variable" id="uZR4xmGE3PbE84iwXI2c-130">
          <mxCell style="text;html=1;strokeColor=none;fillColor=none;align=center;verticalAlign=middle;whiteSpace=wrap;overflow=hidden;" vertex="1" parent="1">
            <mxGeometry x="300" y="540" width="80" height="60" as="geometry" />
          </mxCell>
        </UserObject>
        <mxCell id="uZR4xmGE3PbE84iwXI2c-138" value="&lt;font style=&quot;font-size: 11px;&quot;&gt;1 preferencja&lt;/font&gt;" style="shape=partialRectangle;html=1;whiteSpace=wrap;connectable=0;fillColor=none;top=0;left=0;bottom=0;right=0;overflow=hidden;strokeColor=inherit;fontSize=16;" vertex="1" parent="1">
          <mxGeometry x="80" y="160" width="70" height="30" as="geometry">
            <mxRectangle width="70" height="30" as="alternateBounds" />
          </mxGeometry>
        </mxCell>
        <mxCell id="uZR4xmGE3PbE84iwXI2c-142" value="Kierunek 3" style="shape=table;startSize=30;container=1;collapsible=0;childLayout=tableLayout;fixedRows=1;rowLines=0;fontStyle=0;strokeColor=default;fontSize=16;" vertex="1" parent="1">
          <mxGeometry x="740" y="40" width="180" height="120" as="geometry" />
        </mxCell>
        <mxCell id="uZR4xmGE3PbE84iwXI2c-143" value="" style="shape=tableRow;horizontal=0;startSize=0;swimlaneHead=0;swimlaneBody=0;top=0;left=0;bottom=0;right=0;collapsible=0;dropTarget=0;fillColor=none;points=[[0,0.5],[1,0.5]];portConstraint=eastwest;strokeColor=inherit;fontSize=16;" vertex="1" parent="uZR4xmGE3PbE84iwXI2c-142">
          <mxGeometry y="30" width="180" height="30" as="geometry" />
        </mxCell>
        <mxCell id="uZR4xmGE3PbE84iwXI2c-144" value="&lt;font style=&quot;font-size: 11px;&quot;&gt;2 preferencja&lt;/font&gt;" style="shape=partialRectangle;html=1;whiteSpace=wrap;connectable=0;fillColor=none;top=0;left=0;bottom=0;right=0;overflow=hidden;pointerEvents=1;strokeColor=inherit;fontSize=16;" vertex="1" parent="uZR4xmGE3PbE84iwXI2c-143">
          <mxGeometry width="70" height="30" as="geometry">
            <mxRectangle width="70" height="30" as="alternateBounds" />
          </mxGeometry>
        </mxCell>
        <mxCell id="uZR4xmGE3PbE84iwXI2c-145" value="Kandydat C" style="shape=partialRectangle;html=1;whiteSpace=wrap;connectable=0;fillColor=none;top=0;left=0;bottom=0;right=0;align=left;spacingLeft=6;overflow=hidden;strokeColor=inherit;fontSize=16;" vertex="1" parent="uZR4xmGE3PbE84iwXI2c-143">
          <mxGeometry x="70" width="110" height="30" as="geometry">
            <mxRectangle width="110" height="30" as="alternateBounds" />
          </mxGeometry>
        </mxCell>
        <mxCell id="uZR4xmGE3PbE84iwXI2c-146" value="" style="shape=tableRow;horizontal=0;startSize=0;swimlaneHead=0;swimlaneBody=0;top=0;left=0;bottom=0;right=0;collapsible=0;dropTarget=0;fillColor=none;points=[[0,0.5],[1,0.5]];portConstraint=eastwest;strokeColor=inherit;fontSize=16;" vertex="1" parent="uZR4xmGE3PbE84iwXI2c-142">
          <mxGeometry y="60" width="180" height="30" as="geometry" />
        </mxCell>
        <mxCell id="uZR4xmGE3PbE84iwXI2c-147" value="" style="shape=partialRectangle;html=1;whiteSpace=wrap;connectable=0;fillColor=none;top=0;left=0;bottom=0;right=0;overflow=hidden;strokeColor=inherit;fontSize=16;" vertex="1" parent="uZR4xmGE3PbE84iwXI2c-146">
          <mxGeometry width="70" height="30" as="geometry">
            <mxRectangle width="70" height="30" as="alternateBounds" />
          </mxGeometry>
        </mxCell>
        <mxCell id="uZR4xmGE3PbE84iwXI2c-148" value="" style="shape=partialRectangle;html=1;whiteSpace=wrap;connectable=0;fillColor=none;top=0;left=0;bottom=0;right=0;align=left;spacingLeft=6;overflow=hidden;strokeColor=inherit;fontSize=16;" vertex="1" parent="uZR4xmGE3PbE84iwXI2c-146">
          <mxGeometry x="70" width="110" height="30" as="geometry">
            <mxRectangle width="110" height="30" as="alternateBounds" />
          </mxGeometry>
        </mxCell>
        <mxCell id="uZR4xmGE3PbE84iwXI2c-149" value="" style="shape=tableRow;horizontal=0;startSize=0;swimlaneHead=0;swimlaneBody=0;top=0;left=0;bottom=0;right=0;collapsible=0;dropTarget=0;fillColor=none;points=[[0,0.5],[1,0.5]];portConstraint=eastwest;strokeColor=inherit;fontSize=16;" vertex="1" parent="uZR4xmGE3PbE84iwXI2c-142">
          <mxGeometry y="90" width="180" height="30" as="geometry" />
        </mxCell>
        <mxCell id="uZR4xmGE3PbE84iwXI2c-150" value="&lt;font style=&quot;font-size: 11px;&quot;&gt;1 preferencja&lt;/font&gt;" style="shape=partialRectangle;html=1;whiteSpace=wrap;connectable=0;fillColor=none;top=0;left=0;bottom=0;right=0;overflow=hidden;strokeColor=inherit;fontSize=16;" vertex="1" parent="uZR4xmGE3PbE84iwXI2c-149">
          <mxGeometry width="70" height="30" as="geometry">
            <mxRectangle width="70" height="30" as="alternateBounds" />
          </mxGeometry>
        </mxCell>
        <mxCell id="uZR4xmGE3PbE84iwXI2c-151" value="Kandydat D" style="shape=partialRectangle;html=1;whiteSpace=wrap;connectable=0;fillColor=none;top=0;left=0;bottom=0;right=0;align=left;spacingLeft=6;overflow=hidden;strokeColor=inherit;fontSize=16;" vertex="1" parent="uZR4xmGE3PbE84iwXI2c-149">
          <mxGeometry x="70" width="110" height="30" as="geometry">
            <mxRectangle width="110" height="30" as="alternateBounds" />
          </mxGeometry>
        </mxCell>
        <mxCell id="uZR4xmGE3PbE84iwXI2c-155" value="" style="shape=image;html=1;verticalAlign=top;verticalLabelPosition=bottom;labelBackgroundColor=#ffffff;imageAspect=0;aspect=fixed;image=https://cdn0.iconfinder.com/data/icons/evericons-24px-vol-1/24/more-vertical-128.png" vertex="1" parent="1">
          <mxGeometry x="824" y="100" width="30" height="30" as="geometry" />
        </mxCell>
        <mxCell id="uZR4xmGE3PbE84iwXI2c-158" value="Kandydat A" style="shape=partialRectangle;html=1;whiteSpace=wrap;connectable=0;fillColor=none;top=0;left=0;bottom=0;right=0;align=left;spacingLeft=6;overflow=hidden;strokeColor=inherit;fontSize=16;" vertex="1" parent="1">
          <mxGeometry x="480" y="130" width="110" height="30" as="geometry">
            <mxRectangle width="110" height="30" as="alternateBounds" />
          </mxGeometry>
        </mxCell>
        <mxCell id="uZR4xmGE3PbE84iwXI2c-159" value="&lt;font style=&quot;font-size: 11px;&quot;&gt;1 preferencja&lt;/font&gt;" style="shape=partialRectangle;html=1;whiteSpace=wrap;connectable=0;fillColor=none;top=0;left=0;bottom=0;right=0;overflow=hidden;strokeColor=inherit;fontSize=16;" vertex="1" parent="1">
          <mxGeometry x="410" y="130" width="70" height="30" as="geometry">
            <mxRectangle width="70" height="30" as="alternateBounds" />
          </mxGeometry>
        </mxCell>
        <mxCell id="uZR4xmGE3PbE84iwXI2c-163" value="&lt;font style=&quot;font-size: 11px;&quot;&gt;2 preferencja&lt;/font&gt;" style="shape=partialRectangle;html=1;whiteSpace=wrap;connectable=0;fillColor=none;top=0;left=0;bottom=0;right=0;overflow=hidden;pointerEvents=1;strokeColor=inherit;fontSize=16;" vertex="1" parent="1">
          <mxGeometry x="80" y="70" width="70" height="30" as="geometry">
            <mxRectangle width="70" height="30" as="alternateBounds" />
          </mxGeometry>
        </mxCell>
        <mxCell id="uZR4xmGE3PbE84iwXI2c-168" value="" style="endArrow=classic;html=1;rounded=0;entryX=0;entryY=0.5;entryDx=0;entryDy=0;" edge="1" parent="1">
          <mxGeometry width="50" height="50" relative="1" as="geometry">
            <mxPoint x="710" y="145" as="sourcePoint" />
            <mxPoint x="740" y="145" as="targetPoint" />
          </mxGeometry>
        </mxCell>
        <UserObject label="Pierwsza osoba ponad limit miejsc" placeholders="1" name="Variable" id="uZR4xmGE3PbE84iwXI2c-169">
          <mxCell style="text;html=1;strokeColor=none;fillColor=none;align=center;verticalAlign=middle;whiteSpace=wrap;overflow=hidden;" vertex="1" parent="1">
            <mxGeometry x="630" y="120" width="80" height="60" as="geometry" />
          </mxCell>
        </UserObject>
        <mxCell id="uZR4xmGE3PbE84iwXI2c-170" value="&lt;font style=&quot;font-size: 11px;&quot;&gt;1 preferencja&lt;/font&gt;" style="shape=partialRectangle;html=1;whiteSpace=wrap;connectable=0;fillColor=none;top=0;left=0;bottom=0;right=0;overflow=hidden;strokeColor=inherit;fontSize=16;" vertex="1" parent="1">
          <mxGeometry x="80" y="190" width="70" height="30" as="geometry">
            <mxRectangle width="70" height="30" as="alternateBounds" />
          </mxGeometry>
        </mxCell>
        <mxCell id="uZR4xmGE3PbE84iwXI2c-171" value="" style="html=1;shadow=0;dashed=0;align=center;verticalAlign=middle;shape=mxgraph.arrows2.arrow;dy=0.6;dx=40;direction=south;notch=0;fillColor=#f8cecc;strokeColor=#b85450;" vertex="1" parent="1">
          <mxGeometry x="380" y="280" width="70" height="100" as="geometry" />
        </mxCell>
        <mxCell id="uZR4xmGE3PbE84iwXI2c-172" value="Kierunek 1" style="shape=table;startSize=30;container=1;collapsible=0;childLayout=tableLayout;fixedRows=1;rowLines=0;fontStyle=0;strokeColor=default;fontSize=16;" vertex="1" parent="1">
          <mxGeometry x="70" y="820" width="180" height="120" as="geometry" />
        </mxCell>
        <mxCell id="uZR4xmGE3PbE84iwXI2c-173" value="" style="shape=tableRow;horizontal=0;startSize=0;swimlaneHead=0;swimlaneBody=0;top=0;left=0;bottom=0;right=0;collapsible=0;dropTarget=0;fillColor=none;points=[[0,0.5],[1,0.5]];portConstraint=eastwest;strokeColor=inherit;fontSize=16;" vertex="1" parent="uZR4xmGE3PbE84iwXI2c-172">
          <mxGeometry y="30" width="180" height="30" as="geometry" />
        </mxCell>
        <mxCell id="uZR4xmGE3PbE84iwXI2c-174" value="&lt;font style=&quot;font-size: 11px;&quot;&gt;2 preferencja&lt;/font&gt;" style="shape=partialRectangle;html=1;whiteSpace=wrap;connectable=0;fillColor=none;top=0;left=0;bottom=0;right=0;overflow=hidden;pointerEvents=1;strokeColor=inherit;fontSize=16;" vertex="1" parent="uZR4xmGE3PbE84iwXI2c-173">
          <mxGeometry width="70" height="30" as="geometry">
            <mxRectangle width="70" height="30" as="alternateBounds" />
          </mxGeometry>
        </mxCell>
        <mxCell id="uZR4xmGE3PbE84iwXI2c-175" value="Kandydat D" style="shape=partialRectangle;html=1;whiteSpace=wrap;connectable=0;fillColor=none;top=0;left=0;bottom=0;right=0;align=left;spacingLeft=6;overflow=hidden;strokeColor=inherit;fontSize=16;" vertex="1" parent="uZR4xmGE3PbE84iwXI2c-173">
          <mxGeometry x="70" width="110" height="30" as="geometry">
            <mxRectangle width="110" height="30" as="alternateBounds" />
          </mxGeometry>
        </mxCell>
        <mxCell id="uZR4xmGE3PbE84iwXI2c-176" value="" style="shape=tableRow;horizontal=0;startSize=0;swimlaneHead=0;swimlaneBody=0;top=0;left=0;bottom=0;right=0;collapsible=0;dropTarget=0;fillColor=none;points=[[0,0.5],[1,0.5]];portConstraint=eastwest;strokeColor=inherit;fontSize=16;" vertex="1" parent="uZR4xmGE3PbE84iwXI2c-172">
          <mxGeometry y="60" width="180" height="30" as="geometry" />
        </mxCell>
        <mxCell id="uZR4xmGE3PbE84iwXI2c-177" value="" style="shape=partialRectangle;html=1;whiteSpace=wrap;connectable=0;fillColor=none;top=0;left=0;bottom=0;right=0;overflow=hidden;strokeColor=inherit;fontSize=16;" vertex="1" parent="uZR4xmGE3PbE84iwXI2c-176">
          <mxGeometry width="70" height="30" as="geometry">
            <mxRectangle width="70" height="30" as="alternateBounds" />
          </mxGeometry>
        </mxCell>
        <mxCell id="uZR4xmGE3PbE84iwXI2c-178" value="" style="shape=partialRectangle;html=1;whiteSpace=wrap;connectable=0;fillColor=none;top=0;left=0;bottom=0;right=0;align=left;spacingLeft=6;overflow=hidden;strokeColor=inherit;fontSize=16;" vertex="1" parent="uZR4xmGE3PbE84iwXI2c-176">
          <mxGeometry x="70" width="110" height="30" as="geometry">
            <mxRectangle width="110" height="30" as="alternateBounds" />
          </mxGeometry>
        </mxCell>
        <mxCell id="uZR4xmGE3PbE84iwXI2c-179" value="" style="shape=tableRow;horizontal=0;startSize=0;swimlaneHead=0;swimlaneBody=0;top=0;left=0;bottom=0;right=0;collapsible=0;dropTarget=0;fillColor=none;points=[[0,0.5],[1,0.5]];portConstraint=eastwest;strokeColor=inherit;fontSize=16;" vertex="1" parent="uZR4xmGE3PbE84iwXI2c-172">
          <mxGeometry y="90" width="180" height="30" as="geometry" />
        </mxCell>
        <mxCell id="uZR4xmGE3PbE84iwXI2c-180" value="&lt;font style=&quot;font-size: 11px;&quot;&gt;1 preferencja&lt;/font&gt;" style="shape=partialRectangle;html=1;whiteSpace=wrap;connectable=0;fillColor=none;top=0;left=0;bottom=0;right=0;overflow=hidden;strokeColor=inherit;fontSize=16;" vertex="1" parent="uZR4xmGE3PbE84iwXI2c-179">
          <mxGeometry width="70" height="30" as="geometry">
            <mxRectangle width="70" height="30" as="alternateBounds" />
          </mxGeometry>
        </mxCell>
        <mxCell id="uZR4xmGE3PbE84iwXI2c-181" value="Kandydat C" style="shape=partialRectangle;html=1;whiteSpace=wrap;connectable=0;fillColor=none;top=0;left=0;bottom=0;right=0;align=left;spacingLeft=6;overflow=hidden;strokeColor=inherit;fontSize=16;" vertex="1" parent="uZR4xmGE3PbE84iwXI2c-179">
          <mxGeometry x="70" width="110" height="30" as="geometry">
            <mxRectangle width="110" height="30" as="alternateBounds" />
          </mxGeometry>
        </mxCell>
        <mxCell id="uZR4xmGE3PbE84iwXI2c-182" value="" style="shape=image;html=1;verticalAlign=top;verticalLabelPosition=bottom;labelBackgroundColor=#ffffff;imageAspect=0;aspect=fixed;image=https://cdn0.iconfinder.com/data/icons/evericons-24px-vol-1/24/more-vertical-128.png" vertex="1" parent="1">
          <mxGeometry x="145" y="880" width="30" height="30" as="geometry" />
        </mxCell>
        <mxCell id="uZR4xmGE3PbE84iwXI2c-183" value="" style="endArrow=classic;html=1;rounded=0;entryX=0;entryY=0.5;entryDx=0;entryDy=0;" edge="1" parent="1" target="uZR4xmGE3PbE84iwXI2c-179">
          <mxGeometry width="50" height="50" relative="1" as="geometry">
            <mxPoint x="40" y="925" as="sourcePoint" />
            <mxPoint x="50" y="920" as="targetPoint" />
          </mxGeometry>
        </mxCell>
        <UserObject label="Ostatnia osoba przyjÄ™ta na kierunek" placeholders="1" name="Variable" id="uZR4xmGE3PbE84iwXI2c-184">
          <mxCell style="text;html=1;strokeColor=none;fillColor=none;align=center;verticalAlign=middle;whiteSpace=wrap;overflow=hidden;" vertex="1" parent="1">
            <mxGeometry x="-40" y="900" width="80" height="60" as="geometry" />
          </mxCell>
        </UserObject>
        <mxCell id="uZR4xmGE3PbE84iwXI2c-185" value="Kierunek 3" style="shape=table;startSize=30;container=1;collapsible=0;childLayout=tableLayout;fixedRows=1;rowLines=0;fontStyle=0;strokeColor=default;fontSize=16;" vertex="1" parent="1">
          <mxGeometry x="400" y="820" width="180" height="120" as="geometry" />
        </mxCell>
        <mxCell id="uZR4xmGE3PbE84iwXI2c-186" value="" style="shape=tableRow;horizontal=0;startSize=0;swimlaneHead=0;swimlaneBody=0;top=0;left=0;bottom=0;right=0;collapsible=0;dropTarget=0;fillColor=none;points=[[0,0.5],[1,0.5]];portConstraint=eastwest;strokeColor=inherit;fontSize=16;" vertex="1" parent="uZR4xmGE3PbE84iwXI2c-185">
          <mxGeometry y="30" width="180" height="30" as="geometry" />
        </mxCell>
        <mxCell id="uZR4xmGE3PbE84iwXI2c-187" value="&lt;font style=&quot;font-size: 11px;&quot;&gt;2 preferencja&lt;/font&gt;" style="shape=partialRectangle;html=1;whiteSpace=wrap;connectable=0;fillColor=none;top=0;left=0;bottom=0;right=0;overflow=hidden;pointerEvents=1;strokeColor=inherit;fontSize=16;" vertex="1" parent="uZR4xmGE3PbE84iwXI2c-186">
          <mxGeometry width="70" height="30" as="geometry">
            <mxRectangle width="70" height="30" as="alternateBounds" />
          </mxGeometry>
        </mxCell>
        <mxCell id="uZR4xmGE3PbE84iwXI2c-188" value="Kandydat C" style="shape=partialRectangle;html=1;whiteSpace=wrap;connectable=0;fillColor=none;top=0;left=0;bottom=0;right=0;align=left;spacingLeft=6;overflow=hidden;strokeColor=inherit;fontSize=16;" vertex="1" parent="uZR4xmGE3PbE84iwXI2c-186">
          <mxGeometry x="70" width="110" height="30" as="geometry">
            <mxRectangle width="110" height="30" as="alternateBounds" />
          </mxGeometry>
        </mxCell>
        <mxCell id="uZR4xmGE3PbE84iwXI2c-189" value="" style="shape=tableRow;horizontal=0;startSize=0;swimlaneHead=0;swimlaneBody=0;top=0;left=0;bottom=0;right=0;collapsible=0;dropTarget=0;fillColor=none;points=[[0,0.5],[1,0.5]];portConstraint=eastwest;strokeColor=inherit;fontSize=16;" vertex="1" parent="uZR4xmGE3PbE84iwXI2c-185">
          <mxGeometry y="60" width="180" height="30" as="geometry" />
        </mxCell>
        <mxCell id="uZR4xmGE3PbE84iwXI2c-190" value="" style="shape=partialRectangle;html=1;whiteSpace=wrap;connectable=0;fillColor=none;top=0;left=0;bottom=0;right=0;overflow=hidden;strokeColor=inherit;fontSize=16;" vertex="1" parent="uZR4xmGE3PbE84iwXI2c-189">
          <mxGeometry width="70" height="30" as="geometry">
            <mxRectangle width="70" height="30" as="alternateBounds" />
          </mxGeometry>
        </mxCell>
        <mxCell id="uZR4xmGE3PbE84iwXI2c-191" value="" style="shape=partialRectangle;html=1;whiteSpace=wrap;connectable=0;fillColor=none;top=0;left=0;bottom=0;right=0;align=left;spacingLeft=6;overflow=hidden;strokeColor=inherit;fontSize=16;" vertex="1" parent="uZR4xmGE3PbE84iwXI2c-189">
          <mxGeometry x="70" width="110" height="30" as="geometry">
            <mxRectangle width="110" height="30" as="alternateBounds" />
          </mxGeometry>
        </mxCell>
        <mxCell id="uZR4xmGE3PbE84iwXI2c-192" value="" style="shape=tableRow;horizontal=0;startSize=0;swimlaneHead=0;swimlaneBody=0;top=0;left=0;bottom=0;right=0;collapsible=0;dropTarget=0;fillColor=none;points=[[0,0.5],[1,0.5]];portConstraint=eastwest;strokeColor=inherit;fontSize=16;" vertex="1" parent="uZR4xmGE3PbE84iwXI2c-185">
          <mxGeometry y="90" width="180" height="30" as="geometry" />
        </mxCell>
        <mxCell id="uZR4xmGE3PbE84iwXI2c-193" value="&lt;font style=&quot;font-size: 11px;&quot;&gt;1 preferencja&lt;/font&gt;" style="shape=partialRectangle;html=1;whiteSpace=wrap;connectable=0;fillColor=none;top=0;left=0;bottom=0;right=0;overflow=hidden;strokeColor=inherit;fontSize=16;" vertex="1" parent="uZR4xmGE3PbE84iwXI2c-192">
          <mxGeometry width="70" height="30" as="geometry">
            <mxRectangle width="70" height="30" as="alternateBounds" />
          </mxGeometry>
        </mxCell>
        <mxCell id="uZR4xmGE3PbE84iwXI2c-194" value="Kandydat D" style="shape=partialRectangle;html=1;whiteSpace=wrap;connectable=0;fillColor=none;top=0;left=0;bottom=0;right=0;align=left;spacingLeft=6;overflow=hidden;strokeColor=inherit;fontSize=16;" vertex="1" parent="uZR4xmGE3PbE84iwXI2c-192">
          <mxGeometry x="70" width="110" height="30" as="geometry">
            <mxRectangle width="110" height="30" as="alternateBounds" />
          </mxGeometry>
        </mxCell>
        <mxCell id="uZR4xmGE3PbE84iwXI2c-195" value="" style="shape=image;html=1;verticalAlign=top;verticalLabelPosition=bottom;labelBackgroundColor=#ffffff;imageAspect=0;aspect=fixed;image=https://cdn0.iconfinder.com/data/icons/evericons-24px-vol-1/24/more-vertical-128.png" vertex="1" parent="1">
          <mxGeometry x="475" y="880" width="30" height="30" as="geometry" />
        </mxCell>
        <mxCell id="uZR4xmGE3PbE84iwXI2c-196" value="" style="endArrow=classic;html=1;rounded=0;entryX=0;entryY=0.5;entryDx=0;entryDy=0;" edge="1" parent="1" target="uZR4xmGE3PbE84iwXI2c-192">
          <mxGeometry width="50" height="50" relative="1" as="geometry">
            <mxPoint x="370" y="925" as="sourcePoint" />
            <mxPoint x="380" y="920" as="targetPoint" />
          </mxGeometry>
        </mxCell>
        <UserObject label="Ostatnia osoba przyjÄ™ta na kierunek" placeholders="1" name="Variable" id="uZR4xmGE3PbE84iwXI2c-197">
          <mxCell style="text;html=1;strokeColor=none;fillColor=none;align=center;verticalAlign=middle;whiteSpace=wrap;overflow=hidden;" vertex="1" parent="1">
            <mxGeometry x="290" y="900" width="80" height="60" as="geometry" />
          </mxCell>
        </UserObject>
        <mxCell id="uZR4xmGE3PbE84iwXI2c-198" value="" style="html=1;shadow=0;dashed=0;align=center;verticalAlign=middle;shape=mxgraph.arrows2.arrow;dy=0.6;dx=40;direction=south;notch=0;fillColor=#f8cecc;strokeColor=#b85450;" vertex="1" parent="1">
          <mxGeometry x="370" y="640" width="70" height="100" as="geometry" />
        </mxCell>
        <mxCell id="uZR4xmGE3PbE84iwXI2c-199" value="" style="line;strokeWidth=2;html=1;strokeColor=#FF0000;" vertex="1" parent="1">
          <mxGeometry x="145" y="860" width="95" height="10" as="geometry" />
        </mxCell>
        <mxCell id="uZR4xmGE3PbE84iwXI2c-201" value="" style="line;strokeWidth=2;html=1;strokeColor=#FF0000;" vertex="1" parent="1">
          <mxGeometry x="475" y="860" width="95" height="10" as="geometry" />
        </mxCell>
      </root>
    </mxGraphModel>
  </diagram>
</mxfile>
